<svg width="191" height="191" xmlns="http://www.w3.org/2000/svg" xmlns:xlink="http://www.w3.org/1999/xlink" xml:space="preserve" overflow="hidden"><g transform="translate(-425 -257)"><path d="M500.604 384.333 540.396 384.333C543.778 384.333 546.365 386.92 546.365 390.302 546.365 393.684 543.778 396.271 540.396 396.271L500.604 396.271C497.222 396.271 494.635 393.684 494.635 390.302 494.635 386.92 497.222 384.333 500.604 384.333Z"/><path d="M500.604 404.229 540.396 404.229C543.778 404.229 546.365 406.816 546.365 410.198 546.365 413.58 543.778 416.167 540.396 416.167L500.604 416.167C497.222 416.167 494.635 413.58 494.635 410.198 494.635 406.816 497.222 404.229 500.604 404.229Z"/><path d="M507.568 424.125C508.165 430.89 513.735 436.062 520.5 436.062 527.265 436.062 532.835 430.89 533.432 424.125L507.568 424.125Z"/><path d="M520.5 268.938C520.5 268.938 520.5 268.938 520.5 268.938 520.5 268.938 520.5 268.938 520.5 268.938 492.248 269.136 469.368 291.818 468.771 320.07L468.771 321.86C468.97 328.028 470.164 333.997 472.352 339.767 474.541 345.139 477.525 350.112 481.305 354.49 486.08 359.663 491.253 369.809 493.442 374.186 494.039 375.579 495.431 376.375 497.023 376.375L543.977 376.375C545.569 376.375 546.961 375.579 547.558 374.186 549.747 369.809 554.92 359.663 559.695 354.49 563.475 350.112 566.658 345.139 568.648 339.767 570.836 333.997 572.03 328.028 572.229 321.86L572.229 320.07C571.632 291.818 548.752 269.136 520.5 268.938ZM560.292 321.661C560.093 326.436 559.098 331.211 557.506 335.589 555.915 339.568 553.726 343.348 550.742 346.531 546.166 352.102 542.186 358.071 539.202 364.438L520.5 364.438 501.997 364.438C498.814 358.071 494.834 352.102 490.457 346.531 487.672 343.348 485.284 339.568 483.693 335.589 481.902 331.211 481.106 326.436 480.907 321.661L480.907 320.07C481.305 298.383 499.013 280.875 520.699 280.676L520.699 280.676 520.699 280.676C520.699 280.676 520.699 280.676 520.699 280.676 520.699 280.676 520.699 280.676 520.699 280.676L520.699 280.676 520.699 280.676C542.385 280.875 560.093 298.184 560.491 320.07L560.491 321.661Z"/></g></svg>